<svg xmlns="http://www.w3.org/2000/svg" width="14" height="15" viewBox="0 0 14 15"><g><g><g/><g><path fill="#fff" d="M14.017 7.161c0 1.901-.008 2.139-.04 2.886-.034.744-.154 1.252-.326 1.698a3.58 3.58 0 0 1-2.049 2.048c-.443.173-.954.293-1.698.326-.747.033-.985.041-2.885.041-1.901 0-2.14-.008-2.886-.041-.744-.033-1.252-.153-1.698-.326a3.445 3.445 0 0 1-1.239-.806 3.452 3.452 0 0 1-.81-1.242c-.172-.443-.292-.954-.325-1.698C.028 9.3.02 9.062.02 7.16c0-1.9.008-2.138.044-2.888.033-.744.153-1.252.325-1.698.175-.465.451-.889.807-1.239.35-.358.771-.632 1.242-.81.443-.172.954-.292 1.698-.325C4.883.168 5.121.16 7.021.16 8.922.16 9.16.168 9.91.204c.744.033 1.253.153 1.699.325.465.175.889.451 1.239.807.358.35.631.771.81 1.242.172.443.292.954.325 1.698.032.747.035.985.035 2.885zm-1.255.006c0-1.868-.008-2.09-.041-2.828-.03-.681-.145-1.053-.24-1.3a2.177 2.177 0 0 0-.523-.803c-.224-.233-.5-.41-.804-.523-.246-.095-.615-.21-1.3-.24-.735-.033-.956-.041-2.827-.041-1.868 0-2.09.008-2.828.04-.681.03-1.053.146-1.3.241-.303.113-.576.29-.803.523-.235.224-.413.5-.525.804-.096.246-.21.615-.24 1.299-.034.736-.042.96-.042 2.828 0 1.868.008 2.09.041 2.828.03.68.145 1.053.24 1.299.113.303.29.577.523.804.224.232.5.41.804.522.246.096.615.21 1.3.24.735.034.96.042 2.827.042 1.868 0 2.09-.008 2.828-.041.681-.03 1.053-.145 1.3-.24a2.323 2.323 0 0 0 1.328-1.33c.096-.246.21-.615.241-1.299.033-.738.041-.957.041-2.825z"/></g><g><path fill="#fff" d="M10.623 7.166a3.597 3.597 0 1 1-7.195-.001 3.597 3.597 0 0 1 7.195.001zm-1.264 0a2.333 2.333 0 1 0-4.666.001 2.333 2.333 0 0 0 4.666 0z"/></g><g><path fill="#fff" d="M11.6 3.42a.84.84 0 1 1-1.68 0 .84.84 0 0 1 1.68 0z"/></g></g></g></svg>