<svg xmlns="http://www.w3.org/2000/svg" width="14" height="12" viewBox="0 0 14 12"><g><g><g><g><path fill="#fff" d="M14.118 1.678a6.034 6.034 0 0 1-1.668.457 2.878 2.878 0 0 0 1.273-1.6c-.56.334-1.177.57-1.835.7a2.893 2.893 0 0 0-5.006 1.98c0 .23.019.45.067.66A8.192 8.192 0 0 1 .983.848a2.898 2.898 0 0 0 .89 3.868 2.858 2.858 0 0 1-1.308-.357v.032a2.908 2.908 0 0 0 2.319 2.844 2.889 2.889 0 0 1-.76.095c-.185 0-.372-.01-.547-.05A2.922 2.922 0 0 0 4.28 9.298a5.816 5.816 0 0 1-3.588 1.234c-.238 0-.465-.01-.693-.04a8.149 8.149 0 0 0 4.44 1.3c5.326 0 8.238-4.412 8.238-8.236 0-.128-.005-.252-.01-.374a5.773 5.773 0 0 0 1.45-1.503z"/></g></g></g></g></svg>