<svg width="120" height="41" viewBox="0 0 120 41" fill="none" xmlns="http://www.w3.org/2000/svg">
<path d="M0 40.1605C0 18.0691 17.9086 0.160522 40 0.160522H120C120 22.2519 102.091 40.1605 80 40.1605H0Z" fill="white"/>
<path d="M17.626 25.0649H15.507V16.2899H17.626L20.473 21.3209L23.307 16.2899H25.426V25.0649H23.307V20.2549L21.175 24.1549H19.758L17.626 20.2549V25.0649ZM28.2447 25.0649H25.9957L29.6487 16.2899H31.4297L35.0957 25.0649H32.8467L32.2877 23.6869H28.8037L28.2447 25.0649ZM30.5587 19.3579L29.5707 21.7759H31.5207L30.5587 19.3579ZM35.6672 16.2899H39.8142C40.7415 16.2899 41.5085 16.5803 42.1152 17.1609C42.7392 17.7329 43.0512 18.4479 43.0512 19.3059C43.0512 19.8519 42.9125 20.3546 42.6352 20.8139C42.3665 21.2733 41.9982 21.6329 41.5302 21.8929L43.3632 25.0649H40.9582L39.3722 22.3219H37.8252V25.0649H35.6672V16.2899ZM39.8142 18.2789H37.8252V20.3459H39.8142C40.1002 20.3459 40.3385 20.2463 40.5292 20.0469C40.7198 19.8476 40.8152 19.6006 40.8152 19.3059C40.8152 19.0113 40.7198 18.7686 40.5292 18.5779C40.3385 18.3786 40.1002 18.2789 39.8142 18.2789ZM48.4529 25.0649H46.6719L43.0709 16.2899H45.3199L47.5689 21.9579L49.8049 16.2899H52.0539L48.4529 25.0649ZM52.6154 16.2899H59.2194V18.2789H54.7734V19.6569H58.4784V21.6329H54.7734V23.0889H59.2844V25.0649H52.6154V16.2899ZM60.0929 16.2899H62.2509V23.0889H66.3979V25.0649H60.0929V16.2899Z" fill="black"/>
<path d="M73.4695 16.2899V21.7629C73.4695 22.7336 73.1229 23.5526 72.4295 24.2199C71.7449 24.8786 70.8739 25.2079 69.8165 25.2079C69.1665 25.2079 68.5685 25.0736 68.0225 24.8049C67.4852 24.5276 67.0562 24.1419 66.7355 23.6479L68.5165 22.4779C68.8025 22.9806 69.2489 23.2319 69.8555 23.2319C70.2975 23.2233 70.6659 23.0803 70.9605 22.8029C71.2552 22.5169 71.4025 22.1659 71.4025 21.7499V16.2899H73.4695ZM80.0676 21.4769V16.2899H82.2256V21.4899C82.2256 22.5386 81.853 23.4226 81.1076 24.1419C80.371 24.8526 79.4393 25.2079 78.3126 25.2079C77.186 25.2079 76.2543 24.8526 75.5176 24.1419C74.7723 23.4226 74.3996 22.5386 74.3996 21.4899V16.2899H76.5446V21.4769C76.5446 21.9796 76.7136 22.3956 77.0516 22.7249C77.3896 23.0543 77.81 23.2189 78.3126 23.2189C78.8153 23.2189 79.2313 23.0543 79.5606 22.7249C79.8986 22.3956 80.0676 21.9796 80.0676 21.4769ZM85.3564 25.0649H83.1984V16.2899H85.3564V25.0649ZM86.2419 20.6709C86.2419 19.3883 86.6839 18.3136 87.5679 17.4469C88.4606 16.5803 89.5613 16.1469 90.8699 16.1469C91.8233 16.1469 92.6683 16.3809 93.4049 16.8489C94.1416 17.2996 94.7006 17.9149 95.0819 18.6949L92.9759 19.4619C92.7679 19.0719 92.4776 18.7686 92.1049 18.5519C91.7409 18.3266 91.3293 18.2139 90.8699 18.2139C90.1939 18.2139 89.6263 18.4479 89.1669 18.9159C88.7163 19.3753 88.4909 19.9603 88.4909 20.6709C88.4909 21.3729 88.7163 21.9623 89.1669 22.4389C89.6263 22.9069 90.1939 23.1409 90.8699 23.1409C91.3293 23.1409 91.7409 23.0326 92.1049 22.8159C92.4776 22.5906 92.7679 22.2829 92.9759 21.8929L95.0819 22.6599C94.7006 23.4313 94.1416 24.0509 93.4049 24.5189C92.6596 24.9783 91.8146 25.2079 90.8699 25.2079C89.5439 25.2079 88.4433 24.7746 87.5679 23.9079C86.6839 23.0326 86.2419 21.9536 86.2419 20.6709ZM95.8429 16.2899H102.447V18.2789H98.0009V19.6569H101.706V21.6329H98.0009V23.0889H102.512V25.0649H95.8429V16.2899Z" fill="#15AA48"/>
</svg>
